<svg xmlns="http://www.w3.org/2000/svg" xmlns:xlink="http://www.w3.org/1999/xlink" width="144" height="25" viewBox="0 0 144 25">
  <defs>
    <polygon id="logo-bb-trans-a" points="14.816 24.781 29.547 24.781 29.547 .142 14.816 .142 .084 .142 .084 24.781 14.816 24.781"/>
  </defs>
  <g fill="none" fill-rule="evenodd" transform="translate(-6 -6)">
    <rect width="154.653" height="35.631" x=".549" y=".686"/>
    <g transform="translate(6 6)">
      <path fill="#29235C" d="M100.197127 14.8926535C100.013794 14.8926535 99.831557 14.9529605 99.6822149 15.0735746L98.1552412 16.6001096C97.9999781 16.7560307 97.9205921 16.9597588 97.9173026 17.164364 97.9155482 17.3762061 97.9949342 17.5882675 98.1552412 17.7494518L99.6923026 19.2867325C99.8394518 19.4020833 100.018838 19.4601974 100.197127 19.4601974 100.406338 19.4601974 100.615548 19.3808114 100.774101 19.2224781L102.820373 17.1751096 100.774759 15.1301535C100.615548 14.9718202 100.406338 14.8926535 100.197127 14.8926535M94.2495175 14.8926535C94.0405263 14.8926535 93.8310965 14.9718202 93.671886 15.1301535L91.6267105 17.1751096 93.6725439 19.2224781C93.8310965 19.3808114 94.0405263 19.4601974 94.2495175 19.4601974 94.4289035 19.4601974 94.6085088 19.4014254 94.7565351 19.2847588L96.2914035 17.7494518C96.4492982 17.5911184 96.5289035 17.3830044 96.5293421 17.1748904 96.5289035 16.9667763 96.4492982 16.758443 96.2914035 16.6001096L94.7688158 15.0777412C94.6190351 14.9544956 94.4339474 14.8926535 94.2495175 14.8926535"/>
      <g transform="translate(113.816 .078)">
        <mask id="logo-bb-trans-b" fill="#fff">
          <use xlink:href="#logo-bb-trans-a"/>
        </mask>
        <path fill="#29235C" d="M20.5250439,17.0765351 L29.4778947,17.0765351 L29.4778947,12.6004386 C29.4778947,10.9344298 28.8822807,9.54013158 27.6910526,8.41820175 C26.4996053,7.29692982 24.955307,6.73530702 23.0579386,6.73530702 C21.1605702,6.73530702 19.6046491,7.30767544 18.3910526,8.45328947 C17.1761404,9.59868421 16.5689035,11.0037281 16.5689035,12.6699561 L16.5689035,18.8460526 C16.5689035,20.5357456 17.1702193,21.9464912 18.3730702,23.0802632 C19.5763596,24.2140351 21.1265789,24.7807018 23.0230702,24.7807018 C24.7349123,24.7807018 26.2039912,24.2833333 27.4305263,23.2879386 C28.6559649,22.2934211 29.3621053,20.9743421 29.547193,19.3326754 L25.5217544,19.3326754 L25.3831579,19.8179825 C25.2908333,20.141886 25.0362281,20.4653509 24.62,20.7901316 C24.2026754,21.1138158 23.6713158,21.2754386 23.0230702,21.2754386 C22.3061842,21.2754386 21.7105702,21.0445175 21.2360088,20.5813596 C20.761886,20.1195175 20.5250439,19.5177632 20.5250439,18.7767544 L20.5250439,17.0765351 Z M20.5250439,13.7804825 L20.5250439,12.6699561 C20.5250439,11.9756579 20.7796491,11.4035088 21.2882018,10.9519737 C21.7974123,10.5006579 22.3873246,10.2752193 23.0579386,10.2752193 C23.7752632,10.2752193 24.3713158,10.4947368 24.8452193,10.9344298 C25.3189035,11.3743421 25.5568421,11.952193 25.5568421,12.6699561 L25.5568421,13.7804825 L20.5250439,13.7804825 Z M11.7436842,22.7155702 C12.9939035,21.5710526 13.6175877,20.1195175 13.6175877,18.360307 L13.6175877,15.7583333 C13.6175877,14.925 13.4498246,14.1497807 13.1147368,13.433114 C12.7794298,12.7157895 12.5129825,12.2594298 12.3169298,12.0625 C12.1202193,11.8655702 11.9524561,11.7212719 11.8132018,11.6285088 L12.230307,11.1769737 C12.4849123,10.8993421 12.7447807,10.4489035 13.0101316,9.82412281 C13.2765789,9.19912281 13.4099123,8.53991228 13.4099123,7.84583333 L13.4099123,5.83355263 C13.4099123,4.23640351 12.8364474,2.88925439 11.6921491,1.79035088 C10.5463158,0.691666667 9.11802632,0.141666667 7.40618421,0.141666667 L0.0844736842,0.141666667 L0.0844736842,24.4333333 L7.30201754,24.4333333 C9.01407895,24.4333333 10.4947807,23.8611842 11.7436842,22.7155702 L11.7436842,22.7155702 Z M9.28008772,7.98508772 C9.28008772,8.44714912 9.10070175,8.84627193 8.74214912,9.18245614 C8.38425439,9.51798246 7.95026316,9.68552632 7.44127193,9.68552632 L4.28359649,9.68552632 L4.28359649,4.20241228 L7.44127193,4.20241228 C7.95026316,4.20241228 8.38425439,4.37017544 8.74214912,4.70570175 C9.10070175,5.04078947 9.28008772,5.43969298 9.28008772,5.90263158 L9.28008772,7.98508772 Z M9.38447368,18.360307 C9.38447368,18.9162281 9.18162281,19.3899123 8.77723684,19.783114 C8.37263158,20.1767544 7.88030702,20.3736842 7.30201754,20.3736842 L4.28359649,20.3736842 L4.28359649,13.7453947 L7.30201754,13.7453947 C7.95026316,13.7453947 8.45903509,13.9763158 8.82855263,14.4394737 C9.19916667,14.9024123 9.38447368,15.3528509 9.38447368,15.7925439 L9.38447368,18.360307 Z" mask="url(#logo-bb-trans-b)"/>
      </g>
      <path fill="#29235C" d="M82.9068202,10.8384211 L84.0864254,7.43776316 L83.7734868,7.29850877 C83.589057,7.20684211 83.2822588,7.11407895 82.8544079,7.02175439 C82.4263377,6.92899123 81.9805044,6.8820614 81.518443,6.8820614 C81.1022149,6.8820614 80.6976096,6.96298246 80.30375,7.12592105 C79.9109868,7.28776316 79.5919079,7.46714912 79.349364,7.66320175 C79.1063816,7.85991228 78.8816009,8.08535088 78.6726096,8.33995614 C78.4649342,8.59412281 78.3254605,8.76780702 78.2563816,8.86035088 C78.1873026,8.95311404 78.1403728,9.03381579 78.1177851,9.10311404 L78.0487061,7.15991228 L74.2660307,7.15991228 L74.2660307,24.5112281 L78.2914693,24.5112281 L78.2914693,14.4818421 C78.2914693,13.1636404 78.551557,12.1634211 79.0723904,11.4811842 C79.5919079,10.7985088 80.2579167,10.4575 81.0669079,10.4575 C81.8307237,10.4575 82.4438816,10.5842544 82.9068202,10.8384211 L82.9068202,10.8384211 Z M61.4250219,18.8544298 L61.4250219,17.1542105 L70.3778728,17.1542105 L70.3778728,12.678114 C70.3778728,11.0121053 69.7822588,9.61780702 68.5908114,8.49587719 C67.3995833,7.37460526 65.8552851,6.81298246 63.9579167,6.81298246 C62.061864,6.81298246 60.5057237,7.38535088 59.2908114,8.53096491 C58.0761184,9.67657895 57.4686623,11.0811842 57.4686623,12.7476316 L57.4686623,18.9239474 C57.4686623,20.6132018 58.0701974,22.0237281 59.2732675,23.1579386 C60.4763377,24.2917105 62.0263377,24.8581579 63.9237061,24.8581579 C65.6357675,24.8581579 67.1050658,24.3607895 68.3305044,23.365614 C69.5570395,22.3710965 70.2629605,21.0522368 70.4469518,19.4099123 L66.4226096,19.4099123 L66.283136,19.8958772 C66.1903728,20.2193421 65.9362061,20.5430263 65.5197588,20.867807 C65.1033114,21.1912719 64.5710746,21.3533333 63.9237061,21.3533333 C63.2061623,21.3533333 62.6105482,21.1224123 62.136864,20.6590351 C61.661864,20.1967544 61.4250219,19.5954386 61.4250219,18.8544298 L61.4250219,18.8544298 Z M61.4250219,13.8581579 L61.4250219,12.7476316 C61.4250219,12.053114 61.6796272,11.4811842 62.1881798,11.0294298 C62.6973904,10.5783333 63.2873026,10.3528947 63.9579167,10.3528947 C64.6752412,10.3528947 65.2712939,10.5724123 65.7447588,11.0121053 C66.2197588,11.4515789 66.4566009,12.0298684 66.4566009,12.7476316 L66.4566009,13.8581579 L61.4250219,13.8581579 Z M50.6322588,19.6526754 L50.6322588,10.8033333 L54.3798465,10.8033333 L54.3798465,7.15991228 L50.6322588,7.15991228 L50.6322588,2.64916667 L46.5726096,2.64916667 L46.5726096,7.15991228 L38.6601096,7.15991228 L38.6601096,2.64916667 L34.5995833,2.64916667 L34.5995833,7.15991228 L32.3092325,7.15991228 L32.3092325,10.8033333 L34.5995833,10.8033333 L34.5995833,19.5835965 C34.5995833,23.1002632 36.2307237,24.8581579 39.4927851,24.8581579 C41.06625,24.8581579 42.3726096,24.4066228 43.414057,23.5048684 L41.6092325,20.5899561 L41.3666886,20.7632018 C41.2046272,20.8559649 40.9794079,20.9546491 40.6897149,21.0577193 C40.4004605,21.1623246 40.1294079,21.2147368 39.8748026,21.2147368 C39.0647149,21.2147368 38.6601096,20.6941228 38.6601096,19.6526754 L38.6601096,10.8033333 L46.5726096,10.8033333 L46.5726096,19.5835965 C46.5726096,23.1002632 48.2039693,24.8581579 51.4649342,24.8581579 C53.0383991,24.8581579 54.3458553,24.4066228 55.3873026,23.5048684 L53.5826974,20.5899561 L53.3399342,20.7632018 C53.1769956,20.8559649 52.9519956,20.9546491 52.6623026,21.0577193 C52.3739254,21.1623246 52.101557,21.2147368 51.8469518,21.2147368 C51.0379605,21.2147368 50.6322588,20.6941228 50.6322588,19.6526754 L50.6322588,19.6526754 Z M20.7916886,18.8544298 L20.7916886,17.1542105 L29.7447588,17.1542105 L29.7447588,12.678114 C29.7447588,11.0121053 29.1487061,9.61780702 27.9576974,8.49587719 C26.76625,7.37460526 25.2221711,6.81298246 23.3245833,6.81298246 C21.4272149,6.81298246 19.8712939,7.38535088 18.6574781,8.53096491 C17.4427851,9.67657895 16.8355482,11.0811842 16.8355482,12.7476316 L16.8355482,18.9239474 C16.8355482,20.6132018 17.4370833,22.0241667 18.6399342,23.1579386 C19.8432237,24.2917105 21.3932237,24.8581579 23.2897149,24.8581579 C25.001557,24.8581579 26.4708553,24.3607895 27.6973904,23.365614 C28.9228289,22.3710965 29.62875,21.0522368 29.8138377,19.4103509 L25.7883991,19.4103509 L25.6498026,19.8958772 C25.5570395,20.2193421 25.3030921,20.5430263 24.8866447,20.867807 C24.4691009,21.1912719 23.9379605,21.3533333 23.2897149,21.3533333 C22.5728289,21.3533333 21.9774342,21.1224123 21.5022149,20.6590351 C21.0285307,20.1967544 20.7916886,19.5954386 20.7916886,18.8544298 L20.7916886,18.8544298 Z M20.7916886,13.8581579 L20.7916886,12.7476316 C20.7916886,12.053114 21.0462939,11.4811842 21.5550658,11.0294298 C22.064057,10.5783333 22.65375,10.3528947 23.3245833,10.3528947 C24.0421272,10.3528947 24.6379605,10.5724123 25.1116447,11.0121053 C25.5855482,11.4515789 25.8234868,12.0298684 25.8234868,12.7476316 L25.8234868,13.8581579 L20.7916886,13.8581579 Z M11.6594518,22.7932456 C12.9092325,21.6487281 13.533136,20.1967544 13.533136,18.4379825 L13.533136,15.8360088 C13.533136,15.0022368 13.3653728,14.2276754 13.0300658,13.5110088 C12.6945395,12.7930263 12.4285307,12.3371053 12.2324781,12.1403947 C12.0355482,11.9430263 11.8680044,11.7989474 11.7285307,11.7061842 L12.1458553,11.2546491 C12.4000219,10.9770175 12.6605482,10.5265789 12.9258991,9.90157895 C13.1919079,9.27679825 13.3254605,8.61780702 13.3254605,7.92350877 L13.3254605,5.91122807 C13.3254605,4.31429825 12.7522149,2.96671053 11.6076974,1.86824561 C10.4620833,0.769342105 9.03379386,0.219342105 7.32195175,0.219342105 L2.19298246e-05,0.219342105 L2.19298246e-05,24.5112281 L7.21734649,24.5112281 C8.92940789,24.5112281 10.4103289,23.9388596 11.6594518,22.7932456 L11.6594518,22.7932456 Z M9.19563596,8.06276316 C9.19563596,8.52504386 9.0160307,8.92372807 8.65725877,9.26013158 C8.29980263,9.59565789 7.86559211,9.76342105 7.35682018,9.76342105 L4.19892544,9.76342105 L4.19892544,4.28008772 L7.35682018,4.28008772 C7.86559211,4.28008772 8.29980263,4.44785088 8.65725877,4.78337719 C9.0160307,5.11846491 9.19563596,5.51736842 9.19563596,5.98030702 L9.19563596,8.06276316 Z M9.29980263,18.4379825 C9.29980263,18.9939035 9.09695175,19.4675877 8.69256579,19.8607895 C8.28796053,20.2546491 7.79541667,20.4513596 7.21734649,20.4513596 L4.19892544,20.4513596 L4.19892544,13.8226316 L7.21734649,13.8226316 C7.86559211,13.8226316 8.37480263,14.0539912 8.74410088,14.5167105 C9.11471491,14.9800877 9.29980263,15.4305263 9.29980263,15.87 L9.29980263,18.4379825 Z"/>
      <path fill="#E63452" d="M98.1855175 16.6050658C98.1595175 16.6320658 98.1400175 16.6565658 98.1245175 16.6800658 98.1460175 16.6555658 98.1625175 16.6285658 98.1855175 16.6050658M107.262851 21.6149781L102.820526 17.1750658 107.262851 12.7305482C107.580175 12.4132237 107.580175 11.8932675 107.262851 11.575943L105.799912 10.1119079C105.640482 9.95291667 105.431272 9.87375 105.222281 9.87375 105.013289 9.87375 104.804298 9.95291667 104.644868 10.11125L99.6825877 15.0733114C99.8317105 14.953136 100.013947 14.8926096 100.197061 14.8926096 100.406272 14.8926096 100.615482 14.9717763 100.774693 15.1301096L102.820307 17.1750658 100.774035 19.2224342C100.615482 19.3807675 100.406272 19.4601535 100.197061 19.4601535 100.018991 19.4601535 99.8400439 19.4022588 99.6928947 19.2873465L104.644868 24.2397588C104.80386 24.3980921 105.012632 24.4772588 105.221623 24.4772588 105.430833 24.4772588 105.640482 24.3967763 105.799035 24.238443L107.263509 22.7695833C107.580175 22.4529167 107.580175 21.9320833 107.262851 21.6149781M96.3447982 16.6659079C96.3322982 16.6464079 96.3152982 16.6264079 96.2967982 16.6069079 96.3147982 16.6254079 96.3277982 16.6469079 96.3447982 16.6659079M94.5998684 19.3788377C94.5724561 19.3919956 94.5452632 19.4055921 94.5165351 19.4154605 94.4303509 19.4450658 94.3397807 19.4601974 94.2494298 19.4601974 94.0404386 19.4601974 93.8310088 19.3808114 93.6724561 19.2224781L91.6266228 17.1751096 93.6720175 15.1301535C93.8310088 14.9718202 94.0404386 14.8926535 94.2494298 14.8926535 94.4336404 14.8926535 94.6187281 14.9544956 94.7687281 15.0775219L89.8029386 10.1112939C89.6437281 9.95296053 89.4347368 9.87379386 89.2257456 9.87379386 89.0156579 9.87379386 88.8066667 9.95296053 88.648114 10.1119518L87.1851754 11.5759868C86.8676316 11.8933114 86.8676316 12.4132675 87.1851754 12.7305921L91.6266228 17.1751096 87.1851754 21.6150219C86.8676316 21.9321272 86.8676316 22.4529605 87.1847368 22.7696272L88.6489912 24.2384868C88.8073246 24.3968202 89.0174123 24.4773026 89.2264035 24.4773026 89.4353947 24.4773026 89.6437281 24.398136 89.8029386 24.2398026L94.7564474 19.2847588C94.7196053 19.3141447 94.6805702 19.339364 94.6402193 19.3612939 94.6270614 19.3683114 94.6132456 19.3726974 94.5998684 19.3788377"/>
    </g>
  </g>
</svg>
